<mxfile host="app.diagrams.net" modified="2021-03-03T01:52:17.702Z" agent="5.0 (Macintosh; Intel Mac OS X 11_2_1) AppleWebKit/537.36 (KHTML, like Gecko) Chrome/88.0.4324.182 Safari/537.36" etag="Y-ChCQYTOJ5ms_UeibBQ" version="14.4.3" type="github">
  <diagram id="R2lEEEUBdFMjLlhIrx00" name="Page-1">
    <mxGraphModel dx="1889" dy="2431" grid="1" gridSize="10" guides="1" tooltips="1" connect="1" arrows="1" fold="1" page="1" pageScale="1" pageWidth="850" pageHeight="1100" math="0" shadow="0" extFonts="Permanent Marker^https://fonts.googleapis.com/css?family=Permanent+Marker">
      <root>
        <mxCell id="0" />
        <mxCell id="1" parent="0" />
        <mxCell id="fdiEb4zUv5_N_FZoX8nE-8" style="edgeStyle=orthogonalEdgeStyle;rounded=0;orthogonalLoop=1;jettySize=auto;html=1;exitX=0.5;exitY=0;exitDx=0;exitDy=0;entryX=0.5;entryY=1;entryDx=0;entryDy=0;endArrow=none;endFill=0;" edge="1" parent="1" source="fdiEb4zUv5_N_FZoX8nE-1" target="fdiEb4zUv5_N_FZoX8nE-7">
          <mxGeometry relative="1" as="geometry" />
        </mxCell>
        <mxCell id="fdiEb4zUv5_N_FZoX8nE-9" style="edgeStyle=orthogonalEdgeStyle;rounded=0;orthogonalLoop=1;jettySize=auto;html=1;exitX=0.25;exitY=0;exitDx=0;exitDy=0;entryX=1;entryY=1;entryDx=0;entryDy=0;endArrow=none;endFill=0;" edge="1" parent="1" source="fdiEb4zUv5_N_FZoX8nE-1" target="fdiEb4zUv5_N_FZoX8nE-4">
          <mxGeometry relative="1" as="geometry" />
        </mxCell>
        <mxCell id="fdiEb4zUv5_N_FZoX8nE-10" style="edgeStyle=orthogonalEdgeStyle;rounded=0;orthogonalLoop=1;jettySize=auto;html=1;exitX=0;exitY=0.5;exitDx=0;exitDy=0;entryX=1;entryY=0.5;entryDx=0;entryDy=0;endArrow=none;endFill=0;" edge="1" parent="1" source="fdiEb4zUv5_N_FZoX8nE-1" target="fdiEb4zUv5_N_FZoX8nE-3">
          <mxGeometry relative="1" as="geometry" />
        </mxCell>
        <mxCell id="fdiEb4zUv5_N_FZoX8nE-11" style="edgeStyle=orthogonalEdgeStyle;rounded=0;orthogonalLoop=1;jettySize=auto;html=1;exitX=0.25;exitY=1;exitDx=0;exitDy=0;endArrow=none;endFill=0;" edge="1" parent="1" source="fdiEb4zUv5_N_FZoX8nE-1" target="fdiEb4zUv5_N_FZoX8nE-2">
          <mxGeometry relative="1" as="geometry" />
        </mxCell>
        <mxCell id="fdiEb4zUv5_N_FZoX8nE-15" style="edgeStyle=orthogonalEdgeStyle;rounded=0;orthogonalLoop=1;jettySize=auto;html=1;exitX=0.5;exitY=1;exitDx=0;exitDy=0;entryX=1.013;entryY=0.3;entryDx=0;entryDy=0;entryPerimeter=0;endArrow=none;endFill=0;" edge="1" parent="1" source="fdiEb4zUv5_N_FZoX8nE-1" target="fdiEb4zUv5_N_FZoX8nE-14">
          <mxGeometry relative="1" as="geometry" />
        </mxCell>
        <mxCell id="fdiEb4zUv5_N_FZoX8nE-67" style="edgeStyle=orthogonalEdgeStyle;rounded=0;orthogonalLoop=1;jettySize=auto;html=1;exitX=1;exitY=1;exitDx=0;exitDy=0;endArrow=none;endFill=0;strokeWidth=1;entryX=0;entryY=1;entryDx=0;entryDy=0;" edge="1" parent="1" source="fdiEb4zUv5_N_FZoX8nE-1" target="fdiEb4zUv5_N_FZoX8nE-60">
          <mxGeometry relative="1" as="geometry">
            <mxPoint x="660" y="40" as="targetPoint" />
            <Array as="points">
              <mxPoint x="240" y="230" />
              <mxPoint x="651" y="230" />
              <mxPoint x="651" y="30" />
            </Array>
          </mxGeometry>
        </mxCell>
        <mxCell id="fdiEb4zUv5_N_FZoX8nE-69" style="edgeStyle=orthogonalEdgeStyle;rounded=0;orthogonalLoop=1;jettySize=auto;html=1;exitX=1;exitY=0.25;exitDx=0;exitDy=0;entryX=0;entryY=0.5;entryDx=0;entryDy=0;endArrow=none;endFill=0;strokeWidth=5;" edge="1" parent="1" source="fdiEb4zUv5_N_FZoX8nE-1" target="fdiEb4zUv5_N_FZoX8nE-68">
          <mxGeometry relative="1" as="geometry" />
        </mxCell>
        <mxCell id="fdiEb4zUv5_N_FZoX8nE-1" value="Patient" style="rounded=0;whiteSpace=wrap;html=1;" vertex="1" parent="1">
          <mxGeometry x="150" y="196" width="90" height="40" as="geometry" />
        </mxCell>
        <mxCell id="fdiEb4zUv5_N_FZoX8nE-2" value="medicare_no" style="ellipse;whiteSpace=wrap;html=1;fontStyle=4" vertex="1" parent="1">
          <mxGeometry x="10" y="280" width="80" height="50" as="geometry" />
        </mxCell>
        <mxCell id="fdiEb4zUv5_N_FZoX8nE-3" value="addr" style="ellipse;whiteSpace=wrap;html=1;" vertex="1" parent="1">
          <mxGeometry x="10" y="195" width="80" height="50" as="geometry" />
        </mxCell>
        <mxCell id="fdiEb4zUv5_N_FZoX8nE-4" value="dob" style="ellipse;whiteSpace=wrap;html=1;" vertex="1" parent="1">
          <mxGeometry x="10" y="110" width="80" height="50" as="geometry" />
        </mxCell>
        <mxCell id="fdiEb4zUv5_N_FZoX8nE-7" value="age" style="ellipse;whiteSpace=wrap;html=1;align=center;dashed=1;" vertex="1" parent="1">
          <mxGeometry x="155" y="70" width="80" height="40" as="geometry" />
        </mxCell>
        <mxCell id="fdiEb4zUv5_N_FZoX8nE-17" style="edgeStyle=orthogonalEdgeStyle;rounded=0;orthogonalLoop=1;jettySize=auto;html=1;exitX=0.5;exitY=0;exitDx=0;exitDy=0;entryX=0.5;entryY=1;entryDx=0;entryDy=0;endArrow=none;endFill=0;" edge="1" parent="1" source="fdiEb4zUv5_N_FZoX8nE-12" target="fdiEb4zUv5_N_FZoX8nE-16">
          <mxGeometry relative="1" as="geometry" />
        </mxCell>
        <mxCell id="fdiEb4zUv5_N_FZoX8nE-18" style="edgeStyle=orthogonalEdgeStyle;rounded=0;orthogonalLoop=1;jettySize=auto;html=1;exitX=0.25;exitY=0;exitDx=0;exitDy=0;entryX=0.5;entryY=1;entryDx=0;entryDy=0;endArrow=none;endFill=0;" edge="1" parent="1" source="fdiEb4zUv5_N_FZoX8nE-12" target="fdiEb4zUv5_N_FZoX8nE-13">
          <mxGeometry relative="1" as="geometry" />
        </mxCell>
        <mxCell id="fdiEb4zUv5_N_FZoX8nE-20" style="edgeStyle=orthogonalEdgeStyle;rounded=0;orthogonalLoop=1;jettySize=auto;html=1;exitX=0.75;exitY=0;exitDx=0;exitDy=0;endArrow=none;endFill=0;" edge="1" parent="1" source="fdiEb4zUv5_N_FZoX8nE-12" target="fdiEb4zUv5_N_FZoX8nE-19">
          <mxGeometry relative="1" as="geometry" />
        </mxCell>
        <mxCell id="fdiEb4zUv5_N_FZoX8nE-23" style="edgeStyle=orthogonalEdgeStyle;rounded=0;orthogonalLoop=1;jettySize=auto;html=1;exitX=0.25;exitY=0;exitDx=0;exitDy=0;entryX=0.5;entryY=1;entryDx=0;entryDy=0;endArrow=none;endFill=0;" edge="1" parent="1" source="fdiEb4zUv5_N_FZoX8nE-12" target="fdiEb4zUv5_N_FZoX8nE-22">
          <mxGeometry relative="1" as="geometry">
            <Array as="points">
              <mxPoint x="463" y="-38" />
              <mxPoint x="430" y="-38" />
            </Array>
          </mxGeometry>
        </mxCell>
        <mxCell id="fdiEb4zUv5_N_FZoX8nE-24" style="edgeStyle=orthogonalEdgeStyle;rounded=0;orthogonalLoop=1;jettySize=auto;html=1;exitX=0.75;exitY=0;exitDx=0;exitDy=0;entryX=0.5;entryY=1;entryDx=0;entryDy=0;endArrow=none;endFill=0;" edge="1" parent="1" source="fdiEb4zUv5_N_FZoX8nE-12" target="fdiEb4zUv5_N_FZoX8nE-21">
          <mxGeometry relative="1" as="geometry">
            <Array as="points">
              <mxPoint x="508" y="-38" />
              <mxPoint x="555" y="-38" />
            </Array>
          </mxGeometry>
        </mxCell>
        <mxCell id="fdiEb4zUv5_N_FZoX8nE-56" style="edgeStyle=orthogonalEdgeStyle;rounded=0;orthogonalLoop=1;jettySize=auto;html=1;exitX=0;exitY=0.5;exitDx=0;exitDy=0;entryX=1;entryY=0.5;entryDx=0;entryDy=0;endArrow=none;endFill=0;strokeWidth=1;" edge="1" parent="1" source="fdiEb4zUv5_N_FZoX8nE-12" target="fdiEb4zUv5_N_FZoX8nE-55">
          <mxGeometry relative="1" as="geometry" />
        </mxCell>
        <mxCell id="fdiEb4zUv5_N_FZoX8nE-61" style="edgeStyle=orthogonalEdgeStyle;rounded=0;orthogonalLoop=1;jettySize=auto;html=1;exitX=1;exitY=0.5;exitDx=0;exitDy=0;endArrow=none;endFill=0;strokeWidth=1;" edge="1" parent="1" source="fdiEb4zUv5_N_FZoX8nE-12" target="fdiEb4zUv5_N_FZoX8nE-60">
          <mxGeometry relative="1" as="geometry" />
        </mxCell>
        <mxCell id="fdiEb4zUv5_N_FZoX8nE-12" value="Doctor" style="rounded=0;whiteSpace=wrap;html=1;" vertex="1" parent="1">
          <mxGeometry x="440" y="-3" width="90" height="40" as="geometry" />
        </mxCell>
        <mxCell id="fdiEb4zUv5_N_FZoX8nE-13" value="reg_no" style="ellipse;whiteSpace=wrap;html=1;fontStyle=4" vertex="1" parent="1">
          <mxGeometry x="335" y="-93" width="80" height="50" as="geometry" />
        </mxCell>
        <mxCell id="fdiEb4zUv5_N_FZoX8nE-14" value="name" style="ellipse;whiteSpace=wrap;html=1;" vertex="1" parent="1">
          <mxGeometry x="10" y="360" width="80" height="50" as="geometry" />
        </mxCell>
        <mxCell id="fdiEb4zUv5_N_FZoX8nE-16" value="name" style="ellipse;whiteSpace=wrap;html=1;" vertex="1" parent="1">
          <mxGeometry x="445" y="-92" width="80" height="50" as="geometry" />
        </mxCell>
        <mxCell id="fdiEb4zUv5_N_FZoX8nE-19" value="start year" style="ellipse;whiteSpace=wrap;html=1;" vertex="1" parent="1">
          <mxGeometry x="570" y="-92" width="80" height="50" as="geometry" />
        </mxCell>
        <mxCell id="fdiEb4zUv5_N_FZoX8nE-21" value="years_of_service" style="ellipse;whiteSpace=wrap;html=1;align=center;dashed=1;" vertex="1" parent="1">
          <mxGeometry x="500" y="-158" width="110" height="50" as="geometry" />
        </mxCell>
        <mxCell id="fdiEb4zUv5_N_FZoX8nE-22" value="specialty" style="ellipse;whiteSpace=wrap;html=1;" vertex="1" parent="1">
          <mxGeometry x="390" y="-158" width="80" height="50" as="geometry" />
        </mxCell>
        <mxCell id="fdiEb4zUv5_N_FZoX8nE-29" style="edgeStyle=orthogonalEdgeStyle;rounded=0;orthogonalLoop=1;jettySize=auto;html=1;exitX=0.5;exitY=0;exitDx=0;exitDy=0;entryX=0.5;entryY=1;entryDx=0;entryDy=0;endArrow=none;endFill=0;" edge="1" parent="1" source="fdiEb4zUv5_N_FZoX8nE-25" target="fdiEb4zUv5_N_FZoX8nE-27">
          <mxGeometry relative="1" as="geometry" />
        </mxCell>
        <mxCell id="fdiEb4zUv5_N_FZoX8nE-30" style="edgeStyle=orthogonalEdgeStyle;rounded=0;orthogonalLoop=1;jettySize=auto;html=1;exitX=0.25;exitY=0;exitDx=0;exitDy=0;entryX=0.5;entryY=1;entryDx=0;entryDy=0;endArrow=none;endFill=0;" edge="1" parent="1" source="fdiEb4zUv5_N_FZoX8nE-25" target="fdiEb4zUv5_N_FZoX8nE-26">
          <mxGeometry relative="1" as="geometry" />
        </mxCell>
        <mxCell id="fdiEb4zUv5_N_FZoX8nE-31" style="edgeStyle=orthogonalEdgeStyle;rounded=0;orthogonalLoop=1;jettySize=auto;html=1;exitX=0.75;exitY=0;exitDx=0;exitDy=0;entryX=0.5;entryY=1;entryDx=0;entryDy=0;endArrow=none;endFill=0;" edge="1" parent="1" source="fdiEb4zUv5_N_FZoX8nE-25" target="fdiEb4zUv5_N_FZoX8nE-28">
          <mxGeometry relative="1" as="geometry" />
        </mxCell>
        <mxCell id="fdiEb4zUv5_N_FZoX8nE-34" value="" style="edgeStyle=orthogonalEdgeStyle;rounded=0;orthogonalLoop=1;jettySize=auto;html=1;endArrow=block;endFill=1;strokeWidth=5;exitX=0.5;exitY=0;exitDx=0;exitDy=0;entryX=1;entryY=0.5;entryDx=0;entryDy=0;" edge="1" parent="1" source="fdiEb4zUv5_N_FZoX8nE-33" target="fdiEb4zUv5_N_FZoX8nE-25">
          <mxGeometry relative="1" as="geometry">
            <mxPoint x="900" y="270" as="targetPoint" />
          </mxGeometry>
        </mxCell>
        <mxCell id="fdiEb4zUv5_N_FZoX8nE-47" style="edgeStyle=orthogonalEdgeStyle;rounded=0;orthogonalLoop=1;jettySize=auto;html=1;exitX=1;exitY=0;exitDx=0;exitDy=0;entryX=0.5;entryY=1;entryDx=0;entryDy=0;endArrow=none;endFill=0;strokeWidth=1;" edge="1" parent="1" source="fdiEb4zUv5_N_FZoX8nE-25" target="fdiEb4zUv5_N_FZoX8nE-46">
          <mxGeometry relative="1" as="geometry" />
        </mxCell>
        <mxCell id="fdiEb4zUv5_N_FZoX8nE-25" value="Pharmacy" style="rounded=0;whiteSpace=wrap;html=1;" vertex="1" parent="1">
          <mxGeometry x="785" y="205" width="90" height="40" as="geometry" />
        </mxCell>
        <mxCell id="fdiEb4zUv5_N_FZoX8nE-26" value="name" style="ellipse;whiteSpace=wrap;html=1;fontStyle=4" vertex="1" parent="1">
          <mxGeometry x="690" y="70" width="80" height="50" as="geometry" />
        </mxCell>
        <mxCell id="fdiEb4zUv5_N_FZoX8nE-27" value="addr" style="ellipse;whiteSpace=wrap;html=1;" vertex="1" parent="1">
          <mxGeometry x="790" y="70" width="80" height="50" as="geometry" />
        </mxCell>
        <mxCell id="fdiEb4zUv5_N_FZoX8nE-28" value="phone" style="ellipse;whiteSpace=wrap;html=1;" vertex="1" parent="1">
          <mxGeometry x="890" y="70" width="80" height="50" as="geometry" />
        </mxCell>
        <mxCell id="fdiEb4zUv5_N_FZoX8nE-35" value="" style="edgeStyle=orthogonalEdgeStyle;rounded=0;orthogonalLoop=1;jettySize=auto;html=1;endArrow=none;endFill=0;exitX=1;exitY=0.5;exitDx=0;exitDy=0;entryX=0;entryY=0.5;entryDx=0;entryDy=0;strokeWidth=5;" edge="1" parent="1" source="fdiEb4zUv5_N_FZoX8nE-33" target="fdiEb4zUv5_N_FZoX8nE-32">
          <mxGeometry relative="1" as="geometry">
            <mxPoint x="1120" y="265" as="targetPoint" />
          </mxGeometry>
        </mxCell>
        <mxCell id="fdiEb4zUv5_N_FZoX8nE-32" value="Manager" style="rounded=0;whiteSpace=wrap;html=1;" vertex="1" parent="1">
          <mxGeometry x="1120" y="290" width="90" height="40" as="geometry" />
        </mxCell>
        <mxCell id="fdiEb4zUv5_N_FZoX8nE-33" value="Manages" style="rhombus;whiteSpace=wrap;html=1;" vertex="1" parent="1">
          <mxGeometry x="970" y="270" width="80" height="80" as="geometry" />
        </mxCell>
        <mxCell id="fdiEb4zUv5_N_FZoX8nE-41" style="edgeStyle=orthogonalEdgeStyle;rounded=0;orthogonalLoop=1;jettySize=auto;html=1;exitX=1;exitY=0.5;exitDx=0;exitDy=0;entryX=0;entryY=0.5;entryDx=0;entryDy=0;endArrow=none;endFill=0;strokeWidth=1;" edge="1" parent="1" source="fdiEb4zUv5_N_FZoX8nE-36" target="fdiEb4zUv5_N_FZoX8nE-37">
          <mxGeometry relative="1" as="geometry" />
        </mxCell>
        <mxCell id="fdiEb4zUv5_N_FZoX8nE-45" style="edgeStyle=orthogonalEdgeStyle;rounded=0;orthogonalLoop=1;jettySize=auto;html=1;exitX=0.75;exitY=1;exitDx=0;exitDy=0;entryX=0.5;entryY=0;entryDx=0;entryDy=0;endArrow=none;endFill=0;strokeWidth=1;" edge="1" parent="1" source="fdiEb4zUv5_N_FZoX8nE-36" target="fdiEb4zUv5_N_FZoX8nE-43">
          <mxGeometry relative="1" as="geometry" />
        </mxCell>
        <mxCell id="fdiEb4zUv5_N_FZoX8nE-36" value="Pharmacist" style="rounded=0;whiteSpace=wrap;html=1;" vertex="1" parent="1">
          <mxGeometry x="785" y="380" width="90" height="40" as="geometry" />
        </mxCell>
        <mxCell id="fdiEb4zUv5_N_FZoX8nE-37" value="APHRA" style="ellipse;whiteSpace=wrap;html=1;fontStyle=4" vertex="1" parent="1">
          <mxGeometry x="940" y="375" width="80" height="50" as="geometry" />
        </mxCell>
        <mxCell id="fdiEb4zUv5_N_FZoX8nE-39" value="" style="edgeStyle=orthogonalEdgeStyle;rounded=0;orthogonalLoop=1;jettySize=auto;html=1;endArrow=block;endFill=1;strokeWidth=1;" edge="1" parent="1" source="fdiEb4zUv5_N_FZoX8nE-38" target="fdiEb4zUv5_N_FZoX8nE-25">
          <mxGeometry relative="1" as="geometry" />
        </mxCell>
        <mxCell id="fdiEb4zUv5_N_FZoX8nE-40" style="edgeStyle=orthogonalEdgeStyle;rounded=0;orthogonalLoop=1;jettySize=auto;html=1;exitX=0.5;exitY=1;exitDx=0;exitDy=0;entryX=0.5;entryY=0;entryDx=0;entryDy=0;endArrow=none;endFill=0;strokeWidth=5;" edge="1" parent="1" source="fdiEb4zUv5_N_FZoX8nE-38" target="fdiEb4zUv5_N_FZoX8nE-36">
          <mxGeometry relative="1" as="geometry" />
        </mxCell>
        <mxCell id="fdiEb4zUv5_N_FZoX8nE-38" value="Works at" style="rhombus;whiteSpace=wrap;html=1;" vertex="1" parent="1">
          <mxGeometry x="790" y="280" width="80" height="80" as="geometry" />
        </mxCell>
        <mxCell id="fdiEb4zUv5_N_FZoX8nE-44" style="edgeStyle=orthogonalEdgeStyle;rounded=0;orthogonalLoop=1;jettySize=auto;html=1;exitX=0.5;exitY=0;exitDx=0;exitDy=0;entryX=0.25;entryY=1;entryDx=0;entryDy=0;endArrow=none;endFill=0;strokeWidth=1;" edge="1" parent="1" source="fdiEb4zUv5_N_FZoX8nE-42" target="fdiEb4zUv5_N_FZoX8nE-36">
          <mxGeometry relative="1" as="geometry" />
        </mxCell>
        <mxCell id="fdiEb4zUv5_N_FZoX8nE-42" value="qualification" style="ellipse;whiteSpace=wrap;html=1;fontStyle=0" vertex="1" parent="1">
          <mxGeometry x="730" y="470" width="80" height="50" as="geometry" />
        </mxCell>
        <mxCell id="fdiEb4zUv5_N_FZoX8nE-43" value="name" style="ellipse;whiteSpace=wrap;html=1;fontStyle=0" vertex="1" parent="1">
          <mxGeometry x="890" y="470" width="80" height="50" as="geometry" />
        </mxCell>
        <mxCell id="fdiEb4zUv5_N_FZoX8nE-59" style="edgeStyle=orthogonalEdgeStyle;rounded=0;orthogonalLoop=1;jettySize=auto;html=1;exitX=1;exitY=1;exitDx=0;exitDy=0;entryX=0;entryY=0;entryDx=0;entryDy=0;endArrow=none;endFill=0;strokeWidth=1;" edge="1" parent="1" source="fdiEb4zUv5_N_FZoX8nE-46" target="fdiEb4zUv5_N_FZoX8nE-58">
          <mxGeometry relative="1" as="geometry" />
        </mxCell>
        <mxCell id="fdiEb4zUv5_N_FZoX8nE-46" value="Sells" style="rhombus;whiteSpace=wrap;html=1;" vertex="1" parent="1">
          <mxGeometry x="1000" y="105" width="70" height="60" as="geometry" />
        </mxCell>
        <mxCell id="fdiEb4zUv5_N_FZoX8nE-49" style="edgeStyle=orthogonalEdgeStyle;rounded=0;orthogonalLoop=1;jettySize=auto;html=1;exitX=0;exitY=0.5;exitDx=0;exitDy=0;entryX=0.5;entryY=0;entryDx=0;entryDy=0;endArrow=none;endFill=0;strokeWidth=1;" edge="1" parent="1" source="fdiEb4zUv5_N_FZoX8nE-48" target="fdiEb4zUv5_N_FZoX8nE-46">
          <mxGeometry relative="1" as="geometry" />
        </mxCell>
        <mxCell id="fdiEb4zUv5_N_FZoX8nE-48" value="Prescription Medicine" style="rounded=0;whiteSpace=wrap;html=1;" vertex="1" parent="1">
          <mxGeometry x="1140" y="45" width="90" height="40" as="geometry" />
        </mxCell>
        <mxCell id="fdiEb4zUv5_N_FZoX8nE-53" style="edgeStyle=orthogonalEdgeStyle;rounded=0;orthogonalLoop=1;jettySize=auto;html=1;exitX=0;exitY=1;exitDx=0;exitDy=0;entryX=0.5;entryY=0;entryDx=0;entryDy=0;endArrow=none;endFill=0;strokeWidth=1;" edge="1" parent="1" source="fdiEb4zUv5_N_FZoX8nE-51" target="fdiEb4zUv5_N_FZoX8nE-48">
          <mxGeometry relative="1" as="geometry" />
        </mxCell>
        <mxCell id="fdiEb4zUv5_N_FZoX8nE-51" value="trade_name" style="ellipse;whiteSpace=wrap;html=1;fontStyle=4" vertex="1" parent="1">
          <mxGeometry x="1250" y="-30" width="90" height="50" as="geometry" />
        </mxCell>
        <mxCell id="fdiEb4zUv5_N_FZoX8nE-54" style="edgeStyle=orthogonalEdgeStyle;rounded=0;orthogonalLoop=1;jettySize=auto;html=1;exitX=0;exitY=0.5;exitDx=0;exitDy=0;entryX=1;entryY=0.5;entryDx=0;entryDy=0;endArrow=none;endFill=0;strokeWidth=1;" edge="1" parent="1" source="fdiEb4zUv5_N_FZoX8nE-52" target="fdiEb4zUv5_N_FZoX8nE-48">
          <mxGeometry relative="1" as="geometry" />
        </mxCell>
        <mxCell id="fdiEb4zUv5_N_FZoX8nE-52" value="formula" style="ellipse;whiteSpace=wrap;html=1;" vertex="1" parent="1">
          <mxGeometry x="1300" y="40" width="90" height="50" as="geometry" />
        </mxCell>
        <mxCell id="fdiEb4zUv5_N_FZoX8nE-57" style="edgeStyle=orthogonalEdgeStyle;rounded=0;orthogonalLoop=1;jettySize=auto;html=1;exitX=0;exitY=0.5;exitDx=0;exitDy=0;entryX=1;entryY=0;entryDx=0;entryDy=0;endArrow=none;endFill=0;strokeWidth=5;" edge="1" parent="1" source="fdiEb4zUv5_N_FZoX8nE-55" target="fdiEb4zUv5_N_FZoX8nE-1">
          <mxGeometry relative="1" as="geometry" />
        </mxCell>
        <mxCell id="fdiEb4zUv5_N_FZoX8nE-55" value="Sees" style="rhombus;whiteSpace=wrap;html=1;" vertex="1" parent="1">
          <mxGeometry x="300" y="-10" width="70" height="55" as="geometry" />
        </mxCell>
        <mxCell id="fdiEb4zUv5_N_FZoX8nE-58" value="price" style="ellipse;whiteSpace=wrap;html=1;" vertex="1" parent="1">
          <mxGeometry x="1140" y="145" width="70" height="40" as="geometry" />
        </mxCell>
        <mxCell id="fdiEb4zUv5_N_FZoX8nE-62" style="edgeStyle=orthogonalEdgeStyle;rounded=0;orthogonalLoop=1;jettySize=auto;html=1;exitX=1;exitY=0.5;exitDx=0;exitDy=0;entryX=0.25;entryY=0;entryDx=0;entryDy=0;endArrow=none;endFill=0;strokeWidth=1;" edge="1" parent="1" source="fdiEb4zUv5_N_FZoX8nE-60" target="fdiEb4zUv5_N_FZoX8nE-48">
          <mxGeometry relative="1" as="geometry" />
        </mxCell>
        <mxCell id="fdiEb4zUv5_N_FZoX8nE-65" style="edgeStyle=orthogonalEdgeStyle;rounded=0;orthogonalLoop=1;jettySize=auto;html=1;exitX=0;exitY=0;exitDx=0;exitDy=0;entryX=0.5;entryY=1;entryDx=0;entryDy=0;endArrow=none;endFill=0;strokeWidth=1;" edge="1" parent="1" source="fdiEb4zUv5_N_FZoX8nE-60" target="fdiEb4zUv5_N_FZoX8nE-63">
          <mxGeometry relative="1" as="geometry" />
        </mxCell>
        <mxCell id="fdiEb4zUv5_N_FZoX8nE-66" style="edgeStyle=orthogonalEdgeStyle;rounded=0;orthogonalLoop=1;jettySize=auto;html=1;exitX=1;exitY=0;exitDx=0;exitDy=0;entryX=0.5;entryY=1;entryDx=0;entryDy=0;endArrow=none;endFill=0;strokeWidth=1;" edge="1" parent="1" source="fdiEb4zUv5_N_FZoX8nE-60" target="fdiEb4zUv5_N_FZoX8nE-64">
          <mxGeometry relative="1" as="geometry" />
        </mxCell>
        <mxCell id="fdiEb4zUv5_N_FZoX8nE-60" value="Prescribes" style="rhombus;whiteSpace=wrap;html=1;" vertex="1" parent="1">
          <mxGeometry x="640" y="-15" width="70" height="60" as="geometry" />
        </mxCell>
        <mxCell id="fdiEb4zUv5_N_FZoX8nE-63" value="date" style="ellipse;whiteSpace=wrap;html=1;" vertex="1" parent="1">
          <mxGeometry x="710" y="-140" width="70" height="40" as="geometry" />
        </mxCell>
        <mxCell id="fdiEb4zUv5_N_FZoX8nE-64" value="quantity" style="ellipse;whiteSpace=wrap;html=1;" vertex="1" parent="1">
          <mxGeometry x="830" y="-140" width="70" height="40" as="geometry" />
        </mxCell>
        <mxCell id="fdiEb4zUv5_N_FZoX8nE-70" style="edgeStyle=orthogonalEdgeStyle;rounded=0;orthogonalLoop=1;jettySize=auto;html=1;exitX=1;exitY=0.5;exitDx=0;exitDy=0;entryX=0.25;entryY=1;entryDx=0;entryDy=0;endArrow=block;endFill=1;strokeWidth=1;" edge="1" parent="1" source="fdiEb4zUv5_N_FZoX8nE-68" target="fdiEb4zUv5_N_FZoX8nE-12">
          <mxGeometry relative="1" as="geometry" />
        </mxCell>
        <mxCell id="fdiEb4zUv5_N_FZoX8nE-68" value="is primary" style="rhombus;whiteSpace=wrap;html=1;" vertex="1" parent="1">
          <mxGeometry x="330" y="120" width="70" height="55" as="geometry" />
        </mxCell>
      </root>
    </mxGraphModel>
  </diagram>
</mxfile>
